{"title":"Dragon Eyes 2012 DVDrip English Klam","uid":7182290,"size":1469076508,"categoryP":"video","categoryS":"movies","magnet":"?xt=urn:btih:551bf155e869d5ec5f3f0736591fc1fe8ccab705&amp;dn=Dragon+Eyes+2012+DVDrip+English+Klam&amp;tr=udp%3A%2F%2Ftracker.openbittorrent.com%3A80&amp;tr=udp%3A%2F%2Fopen.demonii.com%3A1337&amp;tr=udp%3A%2F%2Ftracker.coppersurfer.tk%3A6969&amp;tr=udp%3A%2F%2Fexodus.desync.com%3A6969","seeders":1,"leechers":0,"uploader":"Klambake","files":-1,"time":1334312694,"description":"With: Jean-Claude Van Damme, Cung Le and Peter Weller\n\nEen buurt leeft in angst en wanhoop wegens het geweld tussen rivaliserende bendes. De lokale bazen Dash en Antuan terroriseren met hun bendeleden de straten en de burgers hebben alle hoop laten varen. Totdat de mysterieuze Ryan Hong arriveert. Hij begint de bendes tegen elkaar uit te spelen en schuwt daarbij geen geweld. Ook krijgt hij hulp van zijn mentor Tiano.\n\nIn St. Jude, drug dealers and corrupt cops have destroyed an urban neighborhood. But newcomer, Hong, has the fighting skills and moral vision to save this town from itself. \n\n------------------------ Dutch Friends ------------------------\n---------------------------------------------------------------\n- Bezoek ook eens mijn vrienden op: &lt;a href=&quot; http://www.Film-Test.nl&quot; rel=&quot;nofollow&quot; target=&quot;_NEW&quot;&gt; http://www.Film-Test.nl&lt;/a&gt; --\n----- voor mijn Nederlandse Sync. ondertitels ---- en meer ----\n------- http://www.Film-Test.nl ---- voor Films en meer -------\n---------------------------------------------------------------\n\nGeneral:\n\nComplete name                    : Dragon EyesDragon Eyes.avi\nFormat                           : AVI\nFormat/Info                      : Audio Video Interleave\nFormat profile                   : OpenDML\nFormat settings                  : rec\nFile size                        : 1.37 GiB\nDuration                         : 1h 27mn\nOverall bit rate                 : 2 231 Kbps\nWriting application              : AVI-Mux GUI 1.17.8.3, Feb 16 201019:42:50\n\nVideo:\n\nFormat                           : MPEG-4 Visual\nFormat profile                   : Advanced Simple@L5\nFormat settings, BVOP            : 2\nFormat settings, QPel            : No\nFormat settings, GMC             : No warppoints\nFormat settings, Matrix          : Default (H.263)\nMuxing mode                      : Packed bitstream\nCodec ID                         : XVID\nCodec ID/Hint                    : XviD\nDuration                         : 1h 27mn\nBit rate                         : 1 777 Kbps\nWidth                            : 720 pixels\nHeight                           : 304 pixels\nDisplay aspect ratio             : 2.35:1\nFrame rate                       : 25.000 fps\nColor space                      : YUV\nChroma subsampling               : 4:2:0\nBit depth                        : 8 bits\nScan type                        : Progressive\nCompression mode                 : Lossy\nBits/(Pixel*Frame)               : 0.325\nStream size                      : 1.09 GiB (80%)\nWriting library                  : XviD 64\n\nAudio:\n\nFormat                           : AC-3\nFormat/Info                      : Audio Coding 3\nMode extension                   : CM (complete main)\nCodec ID                         : 2000\nDuration                         : 1h 27mn\nBit rate mode                    : Constant\nBit rate                         : 448 Kbps\nChannel(s)                       : 6 channels\nChannel positions                : Front: L C R, Side: L R, LFE\nSampling rate                    : 48.0 KHz\nBit depth                        : 16 bits\nCompression mode                 : Lossy\nStream size                      : 281 MiB (20%)\nAlignment                        : Aligned on interleaves\nInterleave, duration             : 64 ms (1.60 video frames)\nInterleave, preload duration     : 1024 ms\n\n\n","torrent":{"xt":"urn:btih:551bf155e869d5ec5f3f0736591fc1fe8ccab705","amp;dn":"Dragon+Eyes+2012+DVDrip+English+Klam","amp;tr":["udp%3A%2F%2Ftracker.openbittorrent.com%3A80","udp%3A%2F%2Fopen.demonii.com%3A1337","udp%3A%2F%2Ftracker.coppersurfer.tk%3A6969","udp%3A%2F%2Fexodus.desync.com%3A6969"],"infoHash":"551bf155e869d5ec5f3f0736591fc1fe8ccab705","infoHashBuffer":{"type":"Buffer","data":[85,27,241,85,232,105,213,236,95,63,7,54,89,31,193,254,140,202,183,5]},"announce":[],"urlList":[]}}